<?xml version="1.0" encoding="UTF-8" standalone="no"?>
<!DOCTYPE svg PUBLIC "-//W3C//DTD SVG 1.1//EN" "http://www.w3.org/Graphics/SVG/1.1/DTD/svg11.dtd">
<svg width="100%" height="100%" viewBox="0 0 173 173" version="1.1" xmlns="http://www.w3.org/2000/svg" xmlns:xlink="http://www.w3.org/1999/xlink" xml:space="preserve" xmlns:serif="http://www.serif.com/" style="fill-rule:evenodd;clip-rule:evenodd;stroke-linejoin:round;stroke-miterlimit:2;">
    <g transform="matrix(1,0,0,1,-13.8622,-13.8622)">
        <path d="M100,13.862C147.541,13.862 186.138,52.459 186.138,100C186.138,147.541 147.541,186.138 100,186.138C52.459,186.138 13.862,147.541 13.862,100C13.862,52.459 52.459,13.862 100,13.862ZM100,30.863C138.158,30.863 169.137,61.842 169.137,100C169.137,138.158 138.158,169.137 100,169.137C61.842,169.137 30.863,138.158 30.863,100C30.863,61.842 61.842,30.863 100,30.863Z" style="fill:rgb(207,0,0);"/>
    </g>
    <g transform="matrix(1,0,0,1,-13.8622,-13.8622)">
        <path d="M95.815,46.556L95.814,46.556C86.103,46.556 76.789,50.414 69.922,57.281C63.056,64.148 59.198,73.461 59.198,83.172C59.198,94.421 59.198,106.799 59.198,118.048C59.198,127.76 63.056,137.073 69.922,143.94C76.789,150.807 86.103,154.664 95.814,154.664C95.815,154.664 95.815,154.664 95.815,154.664L95.815,46.556Z" style="fill:rgb(207,0,0);"/>
    </g>
    <g transform="matrix(1,0,0,1,-13.8622,-13.8622)">
        <path d="M104.069,80.123C123.883,80.248 139.93,96.373 139.93,116.216C139.93,136.059 123.883,152.184 104.069,152.31L103.836,152.31L103.836,80.122L104.069,80.123Z" style="fill:rgb(207,0,0);"/>
    </g>
</svg>
