<?xml version="1.0" encoding="UTF-8" standalone="no"?>
<!DOCTYPE svg PUBLIC "-//W3C//DTD SVG 1.1//EN" "http://www.w3.org/Graphics/SVG/1.1/DTD/svg11.dtd">
<svg width="100%" height="100%" viewBox="0 0 146 146" version="1.1" xmlns="http://www.w3.org/2000/svg" xmlns:xlink="http://www.w3.org/1999/xlink" xml:space="preserve" xmlns:serif="http://www.serif.com/" style="fill-rule:evenodd;clip-rule:evenodd;stroke-linejoin:round;stroke-miterlimit:2;">
    <g id="Artboard1" transform="matrix(1,0,0,1,-98.9223,24.1135)">
        <rect x="98.922" y="-24.113" width="145.709" height="145.709" style="fill:none;"/>
        <g id="path0" transform="matrix(1.72844,0,0,1.72844,112.198,-124.093)">
            <path d="M42.667,58.186C42.162,58.364 41.6,58.575 41.417,58.654C41.233,58.733 40.708,58.929 40.25,59.088C39.522,59.342 38.917,59.585 37.583,60.162C33.762,61.816 27.046,65.425 25.417,66.7C25.325,66.772 24.631,67.281 23.875,67.831C22.22,69.035 22.231,68.956 23.625,69.658C24.244,69.97 24.787,70.27 24.833,70.325C24.879,70.38 25.142,70.568 25.417,70.743C30.933,74.256 32.456,82.675 28.619,88.446C26.49,91.648 21.909,94.333 18.573,94.333C17.855,94.333 17.98,94.475 21.065,97.167C21.433,97.487 21.855,97.862 22.003,98C22.303,98.278 24.057,99.81 25.077,100.684C25.44,100.995 25.858,101.362 26.007,101.5C26.523,101.979 28.587,103.792 29.159,104.27C29.475,104.534 29.963,104.962 30.242,105.22C31.022,105.942 31.635,106.353 31.722,106.211C31.765,106.141 32.41,103.833 33.154,101.083C33.898,98.333 34.618,95.708 34.752,95.25C34.887,94.792 35.152,93.817 35.342,93.083C36.103,90.145 37.526,84.823 38.262,82.167C38.581,81.017 38.689,80.609 39.418,77.833C39.743,76.596 40.123,75.171 40.262,74.667C40.402,74.162 40.586,73.487 40.671,73.167C40.757,72.846 40.907,72.283 41.006,71.917C41.104,71.55 41.404,70.425 41.671,69.417C41.938,68.408 42.388,66.721 42.67,65.667C44.042,60.553 44.66,58.163 44.664,57.958C44.669,57.734 43.603,57.855 42.667,58.186M46.583,58.542C46.542,58.656 46.311,59.5 46.069,60.417C45.827,61.333 45.525,62.477 45.398,62.958C45.109,64.053 44.835,65.069 44.176,67.5C43.89,68.554 43.426,70.279 43.145,71.333C42.864,72.387 42.529,73.644 42.4,74.125C42.272,74.606 42.061,75.394 41.933,75.875C41.658,76.903 40.739,80.354 40.391,81.667C40.257,82.171 40.046,82.958 39.923,83.417C39.8,83.875 39.46,85.15 39.167,86.25C38.874,87.35 38.529,88.644 38.4,89.125C38.272,89.606 38.061,90.394 37.933,90.875C37.804,91.356 37.46,92.65 37.167,93.75C36.874,94.85 36.529,96.144 36.4,96.625C36.272,97.106 36.061,97.894 35.933,98.375C33.561,107.255 33.59,107.109 34.208,106.931C34.415,106.871 35.183,106.713 35.917,106.579C36.65,106.445 37.775,106.229 38.417,106.1C39.058,105.971 40.221,105.738 41,105.583C41.779,105.428 42.904,105.203 43.5,105.083C44.562,104.869 45.831,104.622 48.667,104.075C49.446,103.925 50.571,103.703 51.167,103.583C51.762,103.463 52.887,103.238 53.667,103.083C54.446,102.928 55.571,102.703 56.167,102.583C56.762,102.463 57.887,102.238 58.667,102.083C59.446,101.928 60.608,101.696 61.25,101.567C61.892,101.438 62.881,101.247 63.449,101.143C64.102,101.023 64.526,100.855 64.6,100.685C65.027,99.716 64.739,92.908 64.162,90.333C63.063,85.434 62.224,82.723 60.677,79.083C58.136,73.104 53.396,65.655 48.752,60.342C46.937,58.265 46.738,58.101 46.583,58.542M14.498,96.023C12.995,98.554 10.985,100.44 8.581,101.577C7.77,101.961 7.086,102.164 4.776,102.705L4.135,102.855L4.193,104.441C4.25,106.018 4.254,106.031 4.833,106.539C5.154,106.82 5.932,107.507 6.561,108.067C7.871,109.231 7.679,109.061 9.408,110.583C10.137,111.225 10.855,111.862 11.003,112C11.512,112.471 13.542,114.25 13.667,114.333C13.792,114.417 15.829,116.202 16.33,116.667C16.678,116.99 17.661,117.849 18.999,119C19.584,119.504 20.184,120.029 20.332,120.167C20.653,120.467 21.557,121.259 22.995,122.5C23.579,123.004 24.326,123.662 24.654,123.961C26.566,125.705 26.62,125.692 27.249,123.333C27.505,122.371 27.937,120.758 28.207,119.75C28.478,118.742 28.836,117.392 29.003,116.75C29.171,116.108 29.508,114.833 29.752,113.917C31.285,108.175 31.28,108.803 29.804,107.485C29.146,106.897 28.527,106.342 28.429,106.25C28.33,106.158 27.654,105.558 26.925,104.917C26.196,104.275 25.478,103.638 25.33,103.5C24.683,102.903 23.657,101.994 22.417,100.919C21.683,100.284 20.821,99.524 20.5,99.23C19.291,98.123 15.412,94.839 15.311,94.836C15.252,94.835 14.887,95.369 14.498,96.023M63.801,103.088C63.753,103.136 63.084,103.285 62.315,103.42C61.546,103.554 60.354,103.774 59.667,103.908C58.979,104.042 57.779,104.274 57,104.425C56.221,104.575 55.096,104.797 54.5,104.917C53.904,105.037 52.779,105.262 52,105.416C50.171,105.779 48.36,106.141 47,106.416C46.404,106.537 45.298,106.755 44.542,106.901C43.785,107.047 42.548,107.286 41.792,107.432C41.035,107.579 39.929,107.797 39.333,107.917C38.737,108.037 37.65,108.254 36.917,108.399C32.461,109.283 33.196,108.542 31.898,113.458C31.771,113.94 31.561,114.727 31.433,115.208C31.304,115.69 30.969,116.946 30.688,118C30.407,119.054 29.945,120.779 29.661,121.833C28.92,124.584 28.679,125.552 28.673,125.813C28.665,126.124 29.198,126.051 34,125.083C34.596,124.963 35.721,124.738 36.5,124.583C37.279,124.428 38.404,124.203 39,124.083C39.596,123.963 40.721,123.738 41.5,123.583C42.279,123.428 43.404,123.203 44,123.083C44.596,122.963 45.702,122.745 46.458,122.599C47.215,122.453 48.452,122.214 49.208,122.068C49.965,121.921 51.071,121.703 51.667,121.583C52.262,121.463 53.35,121.245 54.083,121.099C56.552,120.608 56.846,120.543 56.891,120.48C56.916,120.445 57.175,120.106 57.468,119.726C57.761,119.346 58,118.998 58,118.953C58,118.908 58.293,118.432 58.651,117.894C60.459,115.179 62.786,109.954 63.502,107C64.101,104.532 64.328,103.392 64.257,103.208C64.174,102.993 63.954,102.935 63.801,103.088M4.897,110.266C5.005,111.181 5.15,111.798 5.775,114C6.165,115.377 7.331,118.826 7.662,119.583C7.822,119.95 8.132,120.662 8.351,121.167C9.159,123.029 11.503,127.548 11.708,127.639C11.777,127.669 11.833,127.775 11.833,127.874C11.833,128.057 14.396,132.139 15.207,133.247C16.387,134.858 18.071,137.103 18.15,137.167C18.206,137.212 18.672,137.775 19.185,138.417C20.528,140.094 22.116,141.768 22.245,141.642C22.386,141.503 23.364,137.993 24.675,132.917C24.935,131.908 25.342,130.342 25.579,129.435C25.816,128.529 25.989,127.772 25.963,127.754C25.938,127.736 25.465,127.315 24.913,126.819C24.362,126.323 23.354,125.429 22.675,124.833C21.995,124.237 21.056,123.412 20.587,123C20.119,122.587 19.179,121.763 18.499,121.167C17.818,120.571 16.842,119.708 16.33,119.25C15.817,118.792 14.887,117.967 14.262,117.417C13.637,116.867 13.041,116.342 12.938,116.25C12.37,115.746 10.17,113.82 9.685,113.403C9.374,113.135 9.037,112.842 8.935,112.75C8.833,112.658 8.152,112.058 7.42,111.417C6.689,110.775 5.939,110.113 5.754,109.945C4.891,109.163 4.773,109.208 4.897,110.266M52.667,123.423C51.41,123.646 49.51,124.012 47.5,124.417C46.904,124.537 45.779,124.762 45,124.917C44.221,125.072 43.096,125.296 42.5,125.415C41.904,125.535 40.967,125.72 40.417,125.826C39.867,125.933 38.104,126.287 36.5,126.615C33.307,127.266 32.1,127.506 30.083,127.887C28.314,128.222 27.895,128.4 27.785,128.863C27.734,129.076 27.574,129.681 27.43,130.208C26.98,131.846 26.676,132.966 26.433,133.875C25.593,137.02 25.107,138.869 24.912,139.667C24.789,140.171 24.605,140.912 24.505,141.314C24.404,141.715 24.365,142.087 24.417,142.14C24.506,142.228 28.208,141.062 28.583,140.828C28.675,140.771 29.125,140.589 29.583,140.423C35.039,138.451 43.167,133.802 47.655,130.085C50.407,127.806 54.5,123.8 54.5,123.385C54.5,123.127 54.313,123.13 52.667,123.423" style="fill:rgb(49,182,104);"/>
        </g>
    </g>
</svg>
