<?xml version="1.0" encoding="UTF-8" standalone="no"?>
<!DOCTYPE svg PUBLIC "-//W3C//DTD SVG 1.1//EN" "http://www.w3.org/Graphics/SVG/1.1/DTD/svg11.dtd">
<svg width="100%" height="100%" viewBox="0 0 1633 352" version="1.1" xmlns="http://www.w3.org/2000/svg" xmlns:xlink="http://www.w3.org/1999/xlink" xml:space="preserve" xmlns:serif="http://www.serif.com/" style="fill-rule:evenodd;clip-rule:evenodd;stroke-linejoin:round;stroke-miterlimit:2;">
    <g transform="matrix(4.16667,0,0,4.16667,0,0)">
        <g id="path0" transform="matrix(1,0,0,1,-4.135,-57.8438)">
            <path d="M42.667,58.186C42.162,58.364 41.6,58.575 41.417,58.654C41.233,58.733 40.708,58.929 40.25,59.088C39.522,59.342 38.917,59.585 37.583,60.162C33.762,61.816 27.046,65.425 25.417,66.7C25.325,66.772 24.631,67.281 23.875,67.831C22.22,69.035 22.231,68.956 23.625,69.658C24.244,69.97 24.787,70.27 24.833,70.325C24.879,70.38 25.142,70.568 25.417,70.743C30.933,74.256 32.456,82.675 28.619,88.446C26.49,91.648 21.909,94.333 18.573,94.333C17.855,94.333 17.98,94.475 21.065,97.167C21.433,97.487 21.855,97.862 22.003,98C22.303,98.278 24.057,99.81 25.077,100.684C25.44,100.995 25.858,101.362 26.007,101.5C26.523,101.979 28.587,103.792 29.159,104.27C29.475,104.534 29.963,104.962 30.242,105.22C31.022,105.942 31.635,106.353 31.722,106.211C31.765,106.141 32.41,103.833 33.154,101.083C33.898,98.333 34.618,95.708 34.752,95.25C34.887,94.792 35.152,93.817 35.342,93.083C36.103,90.145 37.526,84.823 38.262,82.167C38.581,81.017 38.689,80.609 39.418,77.833C39.743,76.596 40.123,75.171 40.262,74.667C40.402,74.162 40.586,73.487 40.671,73.167C40.757,72.846 40.907,72.283 41.006,71.917C41.104,71.55 41.404,70.425 41.671,69.417C41.938,68.408 42.388,66.721 42.67,65.667C44.042,60.553 44.66,58.163 44.664,57.958C44.669,57.734 43.603,57.855 42.667,58.186M46.583,58.542C46.542,58.656 46.311,59.5 46.069,60.417C45.827,61.333 45.525,62.477 45.398,62.958C45.109,64.053 44.835,65.069 44.176,67.5C43.89,68.554 43.426,70.279 43.145,71.333C42.864,72.387 42.529,73.644 42.4,74.125C42.272,74.606 42.061,75.394 41.933,75.875C41.658,76.903 40.739,80.354 40.391,81.667C40.257,82.171 40.046,82.958 39.923,83.417C39.8,83.875 39.46,85.15 39.167,86.25C38.874,87.35 38.529,88.644 38.4,89.125C38.272,89.606 38.061,90.394 37.933,90.875C37.804,91.356 37.46,92.65 37.167,93.75C36.874,94.85 36.529,96.144 36.4,96.625C36.272,97.106 36.061,97.894 35.933,98.375C33.561,107.255 33.59,107.109 34.208,106.931C34.415,106.871 35.183,106.713 35.917,106.579C36.65,106.445 37.775,106.229 38.417,106.1C39.058,105.971 40.221,105.738 41,105.583C41.779,105.428 42.904,105.203 43.5,105.083C44.562,104.869 45.831,104.622 48.667,104.075C49.446,103.925 50.571,103.703 51.167,103.583C51.762,103.463 52.887,103.238 53.667,103.083C54.446,102.928 55.571,102.703 56.167,102.583C56.762,102.463 57.887,102.238 58.667,102.083C59.446,101.928 60.608,101.696 61.25,101.567C61.892,101.438 62.881,101.247 63.449,101.143C64.102,101.023 64.526,100.855 64.6,100.685C65.027,99.716 64.739,92.908 64.162,90.333C63.063,85.434 62.224,82.723 60.677,79.083C58.136,73.104 53.396,65.655 48.752,60.342C46.937,58.265 46.738,58.101 46.583,58.542M97.917,84.842C86.151,87.199 78.169,96.525 78.169,107.917C78.169,109.577 78.425,112.143 78.668,112.917C78.754,113.192 78.988,113.979 79.188,114.667C79.388,115.354 79.609,116.029 79.679,116.167C79.749,116.304 80.076,117.009 80.406,117.732C80.954,118.933 82.166,120.921 82.855,121.75C84.117,123.267 85.215,124.501 85.306,124.505C85.367,124.507 85.829,124.885 86.333,125.344C86.837,125.802 87.351,126.26 87.474,126.36C93.857,131.557 106.074,132.755 114.833,129.044C118.979,127.288 122.244,124.556 124.741,120.754L125.481,119.628L119.949,116.849L114.417,114.069L113.417,114.995C112.867,115.504 112.131,116.144 111.781,116.418C111.432,116.692 111.047,117.007 110.926,117.118C110.804,117.228 110.378,117.478 109.978,117.673C109.577,117.867 109.13,118.09 108.983,118.166C106.119,119.66 100.098,119.038 97.493,116.979C95.439,115.355 94.495,113.653 94.233,111.101L94.121,110L126.167,110L126.164,107.958C126.158,103.604 125.516,100.209 124.092,97C121.015,90.066 115.399,86.1 106.647,84.679C104.878,84.392 99.682,84.489 97.917,84.842M147.5,84.83C141.995,86.019 137.997,88.139 134.318,91.818C124.177,101.959 125.368,117.705 136.917,126.194C137.65,126.733 138.397,127.285 138.576,127.42C138.755,127.556 138.992,127.667 139.103,127.667C139.215,127.667 139.331,127.728 139.361,127.802C139.555,128.274 144.296,130.14 147.083,130.842C148.194,131.122 154.558,131.245 156.167,131.018C158.227,130.727 161.284,130.061 161.583,129.837C161.675,129.769 161.975,129.66 162.25,129.596C162.915,129.44 166.407,127.73 166.645,127.443C166.789,127.27 166.605,126.762 165.844,125.234C165.3,124.143 164.133,121.751 163.25,119.919C161.495,116.28 161.533,116.346 161.366,116.609C160.81,117.484 156.887,118.553 154.25,118.548C142.155,118.527 139.827,101.308 151.399,97.461C153.979,96.604 159.554,97.461 161.137,98.958C161.459,99.263 161.656,99.215 161.819,98.792C161.898,98.585 163.059,96.212 164.398,93.517C165.738,90.821 166.833,88.596 166.833,88.571C166.833,88.507 164.341,87 164.235,87C164.159,87 163.266,86.624 162.25,86.164C162.067,86.081 161.354,85.857 160.667,85.665C159.979,85.474 159.154,85.244 158.833,85.154C156.561,84.519 149.829,84.327 147.5,84.83M189.833,84.6C189.696,84.641 188.946,84.78 188.167,84.908C180.344,86.195 173.889,90.303 170.215,96.333C169.051,98.244 168.35,99.932 167.656,102.5C166.683,106.094 166.931,111.958 168.2,115.417C168.745,116.903 169.967,119.469 170.288,119.804C170.405,119.925 170.5,120.097 170.5,120.186C170.5,120.275 170.576,120.438 170.67,120.549C171.319,121.318 171.5,121.568 171.5,121.694C171.5,122.043 175.222,125.515 176.583,126.436C179.22,128.221 182.695,129.718 185.75,130.386C186.392,130.526 187.329,130.732 187.833,130.844C189.07,131.118 196.403,131.244 198,131.018C209.474,129.396 217.214,122.886 219.618,112.833C220.05,111.024 220.05,104.806 219.617,103C217.328,93.453 209.989,86.926 199.25,84.887C197.981,84.646 190.448,84.417 189.833,84.6M105.917,94.927C108.404,95.791 110.613,98.342 110.94,100.73L111.045,101.5L102.761,101.5C94.949,101.5 94.483,101.483 94.566,101.208C94.615,101.048 94.736,100.542 94.837,100.083C95.448,97.292 97.567,95.43 101.083,94.596C101.825,94.42 105.103,94.645 105.917,94.927M14.498,96.023C12.995,98.554 10.985,100.44 8.581,101.577C7.77,101.961 7.086,102.164 4.776,102.705L4.135,102.855L4.193,104.441C4.25,106.018 4.254,106.031 4.833,106.539C5.154,106.82 5.932,107.507 6.561,108.067C7.871,109.231 7.679,109.061 9.408,110.583C10.137,111.225 10.855,111.862 11.003,112C11.512,112.471 13.542,114.25 13.667,114.333C13.792,114.417 15.829,116.202 16.33,116.667C16.678,116.99 17.661,117.849 18.999,119C19.584,119.504 20.184,120.029 20.332,120.167C20.653,120.467 21.557,121.259 22.995,122.5C23.579,123.004 24.326,123.662 24.654,123.961C26.566,125.705 26.62,125.692 27.249,123.333C27.505,122.371 27.937,120.758 28.207,119.75C28.478,118.742 28.836,117.392 29.003,116.75C29.171,116.108 29.508,114.833 29.752,113.917C31.285,108.175 31.28,108.803 29.804,107.485C29.146,106.897 28.527,106.342 28.429,106.25C28.33,106.158 27.654,105.558 26.925,104.917C26.196,104.275 25.478,103.638 25.33,103.5C24.683,102.903 23.657,101.994 22.417,100.919C21.683,100.284 20.821,99.524 20.5,99.23C19.291,98.123 15.412,94.839 15.311,94.836C15.252,94.835 14.887,95.369 14.498,96.023M195.917,97.856C201.876,99.399 205.377,105.924 203.192,111.417C202.344,113.55 200.057,116.5 199.251,116.5C199.128,116.5 199.003,116.556 198.972,116.625C198.56,117.552 193.436,118.408 191.25,117.915C180.229,115.428 181.113,98.919 192.333,97.683C193.593,97.544 194.971,97.611 195.917,97.856M242.458,101.125C244.773,101.151 248.56,101.151 250.875,101.125C253.19,101.099 251.296,101.077 246.667,101.077C242.037,101.077 240.144,101.099 242.458,101.125M63.801,103.088C63.753,103.136 63.084,103.285 62.315,103.42C61.546,103.554 60.354,103.774 59.667,103.908C58.979,104.042 57.779,104.274 57,104.425C56.221,104.575 55.096,104.797 54.5,104.917C53.904,105.037 52.779,105.262 52,105.416C50.171,105.779 48.36,106.141 47,106.416C46.404,106.537 45.298,106.755 44.542,106.901C43.785,107.047 42.548,107.286 41.792,107.432C41.035,107.579 39.929,107.797 39.333,107.917C38.737,108.037 37.65,108.254 36.917,108.399C32.461,109.283 33.196,108.542 31.898,113.458C31.771,113.94 31.561,114.727 31.433,115.208C31.304,115.69 30.969,116.946 30.688,118C30.407,119.054 29.945,120.779 29.661,121.833C28.92,124.584 28.679,125.552 28.673,125.813C28.665,126.124 29.198,126.051 34,125.083C34.596,124.963 35.721,124.738 36.5,124.583C37.279,124.428 38.404,124.203 39,124.083C39.596,123.963 40.721,123.738 41.5,123.583C42.279,123.428 43.404,123.203 44,123.083C44.596,122.963 45.702,122.745 46.458,122.599C47.215,122.453 48.452,122.214 49.208,122.068C49.965,121.921 51.071,121.703 51.667,121.583C52.262,121.463 53.35,121.245 54.083,121.099C56.552,120.608 56.846,120.543 56.891,120.48C56.916,120.445 57.175,120.106 57.468,119.726C57.761,119.346 58,118.998 58,118.953C58,118.908 58.293,118.432 58.651,117.894C60.459,115.179 62.786,109.954 63.502,107C64.101,104.532 64.328,103.392 64.257,103.208C64.174,102.993 63.954,102.935 63.801,103.088M4.897,110.266C5.005,111.181 5.15,111.798 5.775,114C6.165,115.377 7.331,118.826 7.662,119.583C7.822,119.95 8.132,120.662 8.351,121.167C9.159,123.029 11.503,127.548 11.708,127.639C11.777,127.669 11.833,127.775 11.833,127.874C11.833,128.057 14.396,132.139 15.207,133.247C16.387,134.858 18.071,137.103 18.15,137.167C18.206,137.212 18.672,137.775 19.185,138.417C20.528,140.094 22.116,141.768 22.245,141.642C22.386,141.503 23.364,137.993 24.675,132.917C24.935,131.908 25.342,130.342 25.579,129.435C25.816,128.529 25.989,127.772 25.963,127.754C25.938,127.736 25.465,127.315 24.913,126.819C24.362,126.323 23.354,125.429 22.675,124.833C21.995,124.237 21.056,123.412 20.587,123C20.119,122.587 19.179,121.763 18.499,121.167C17.818,120.571 16.842,119.708 16.33,119.25C15.817,118.792 14.887,117.967 14.262,117.417C13.637,116.867 13.041,116.342 12.938,116.25C12.37,115.746 10.17,113.82 9.685,113.403C9.374,113.135 9.037,112.842 8.935,112.75C8.833,112.658 8.152,112.058 7.42,111.417C6.689,110.775 5.939,110.113 5.754,109.945C4.891,109.163 4.773,109.208 4.897,110.266M52.667,123.423C51.41,123.646 49.51,124.012 47.5,124.417C46.904,124.537 45.779,124.762 45,124.917C44.221,125.072 43.096,125.296 42.5,125.415C41.904,125.535 40.967,125.72 40.417,125.826C39.867,125.933 38.104,126.287 36.5,126.615C33.307,127.266 32.1,127.506 30.083,127.887C28.314,128.222 27.895,128.4 27.785,128.863C27.734,129.076 27.574,129.681 27.43,130.208C26.98,131.846 26.676,132.966 26.433,133.875C25.593,137.02 25.107,138.869 24.912,139.667C24.789,140.171 24.605,140.912 24.505,141.314C24.404,141.715 24.365,142.087 24.417,142.14C24.506,142.228 28.208,141.062 28.583,140.828C28.675,140.771 29.125,140.589 29.583,140.423C35.039,138.451 43.167,133.802 47.655,130.085C50.407,127.806 54.5,123.8 54.5,123.385C54.5,123.127 54.313,123.13 52.667,123.423" style="fill:white;"/>
        </g>
        <g id="path1" transform="matrix(1,0,0,1,-4.135,-57.8438)">
            <path d="M332.167,77.167L332.167,85.333L325.833,85.333L325.833,97.167L332.167,97.167L332.17,106.375C332.173,118.679 332.363,120.248 334.297,124.029C337.359,130.014 345.149,132.504 353.417,130.141C354.058,129.958 354.846,129.733 355.167,129.643C355.488,129.553 355.975,129.381 356.25,129.262C358.791,128.159 358.649,128.308 358.27,127.131C358.075,126.529 357.701,125.321 356.654,121.917C355.608,118.512 354.781,115.904 354.732,115.85C354.699,115.813 354.11,116.064 353.425,116.407C351.116,117.563 349.127,117.222 348.33,115.535C347.596,113.982 347.5,112.726 347.5,104.708L347.5,97.167L356.833,97.167L356.833,85.333L347.5,85.333L347.5,69L332.167,69L332.167,77.167M243.25,84.264C241.447,84.506 240.715,84.662 238.917,85.184C237.59,85.57 237.555,85.584 235.767,86.403C234.609,86.934 232.063,88.401 231.833,88.669C231.787,88.722 231.487,88.949 231.167,89.172C229.701,90.191 228.176,91.747 226.268,94.17C218.366,104.206 221.723,120.304 233.174,127.289C244.783,134.371 261.54,131.142 268.575,120.469C269.376,119.254 269.756,119.567 264.038,116.72C261.313,115.363 259.046,114.206 259,114.149C258.6,113.649 258.132,113.838 256.873,115.005C255.092,116.655 253.039,118 252.3,118C252.172,118 251.995,118.069 251.908,118.154C251.633,118.423 248.316,118.716 246.732,118.612C241.838,118.29 238,114.712 238,110.47L238,109.667L270.047,109.667L269.955,106.625C269.801,101.577 268.497,96.788 266.511,93.978C266.276,93.645 265.971,93.202 265.833,92.994C261.742,86.797 252.106,83.072 243.25,84.264M289.5,84.339C286.212,84.858 284.768,85.376 281.417,87.237C273.005,91.91 268.618,104.866 271.932,115.25C272.687,117.617 274.522,121.452 275.161,122C275.214,122.046 275.65,122.582 276.129,123.191C283.37,132.392 297.98,133.618 306.292,125.721L307.333,124.731L307.333,129.667L322.5,129.667L322.5,85.333L307.167,85.333L307.167,89.361L306.489,88.806C301.787,84.949 295.728,83.357 289.5,84.339M376.583,84.263C374.004,84.569 371.523,85.115 370.25,85.658C363.753,88.426 360.998,92.153 360.938,98.25C360.881,104.087 364.832,108.826 371.917,111.419C372.375,111.587 372.825,111.774 372.917,111.835C373.008,111.895 373.871,112.234 374.833,112.587C377.963,113.735 379.165,114.57 379.493,115.824C380.429,119.416 375.319,120.715 370.045,118.226C369.187,117.821 366.011,115.973 365.583,115.63C365.492,115.557 365.154,115.273 364.833,115.001C364.11,114.387 363.949,114.381 363.661,114.958C363.25,115.784 362.253,117.415 362.125,117.472C362.056,117.503 362,117.6 362,117.687C362,117.775 361.063,119.413 359.917,121.327C358.771,123.241 357.833,124.875 357.833,124.959C357.833,125.437 361.439,127.685 364.033,128.823C364.463,129.012 364.895,129.167 364.993,129.167C365.091,129.167 365.301,129.236 365.461,129.321C367,130.144 371.997,131 375.258,131C388.722,131 395.813,125.819 395.83,115.969C395.839,110.758 393.5,106.813 388.939,104.345C388.431,104.07 387.88,103.77 387.716,103.679C386.925,103.237 384.404,102.279 382,101.505C378.661,100.43 378.232,100.274 377.428,99.84C375.783,98.951 375.175,97.467 375.931,96.187C377.082,94.238 383.67,94.71 388.791,97.108C389.474,97.428 390.061,97.661 390.096,97.627C390.13,97.592 391.28,95.318 392.65,92.574L395.142,87.583L394.047,87.043C392.719,86.389 390.034,85.471 388.333,85.09C387.646,84.936 386.783,84.74 386.417,84.653C383.948,84.072 379.638,83.901 376.583,84.263M249.141,94.428C250.156,94.709 251.216,95.173 251.306,95.375C251.336,95.444 251.456,95.5 251.572,95.5C252.361,95.5 254.239,98.283 254.72,100.167L254.955,101.083L246.701,101.127C242.162,101.15 238.429,101.15 238.407,101.127C238.254,100.963 238.744,99.1 239.16,98.264C240.752,95.062 245.226,93.342 249.141,94.428M299.274,97.431C309.074,99.406 310.578,113.166 301.417,117.043C298.468,118.291 293.702,117.866 291.425,116.153C282.609,109.517 288.58,95.275 299.274,97.431" style="fill:white;"/>
        </g>
    </g>
</svg>
