<?xml version="1.0" encoding="UTF-8" standalone="no"?>
<!DOCTYPE svg PUBLIC "-//W3C//DTD SVG 1.1//EN" "http://www.w3.org/Graphics/SVG/1.1/DTD/svg11.dtd">
<svg width="100%" height="100%" viewBox="0 0 186 289" version="1.1" xmlns="http://www.w3.org/2000/svg" xmlns:xlink="http://www.w3.org/1999/xlink" xml:space="preserve" xmlns:serif="http://www.serif.com/" style="fill-rule:evenodd;clip-rule:evenodd;stroke-linejoin:round;stroke-miterlimit:2;">
    <g transform="matrix(1,0,0,1,0,0.000721076)">
        <path d="M14.5,282.134C14.5,282.134 24.25,282.884 23.75,288.884C23.75,288.884 28,286.134 29,282.384C30,278.634 35,282.384 35,282.384C35,282.384 37,278.634 37.25,277.884C37.5,277.134 57.75,287.634 58.75,287.884C59.75,288.134 67,272.884 67,272.884C67,272.884 95.25,281.384 96.5,281.134C97.75,280.884 97.25,276.634 97.25,276.634L111.5,277.384L110,271.384L122.5,280.384L137,279.384L144.25,284.134L158.25,278.134L159.75,280.134L163.75,275.634L170.75,274.884L172.75,264.384L161.25,266.134L159.75,260.134C159.75,260.134 151.75,259.884 152.25,259.134C152.75,258.384 162.75,258.384 162.75,258.384L165.75,252.634C165.75,252.634 161.5,251.384 161.25,251.134C161,250.884 168.5,251.134 168.5,251.134L172,248.884L169.25,245.134L174.25,246.384C174.25,246.384 189,232.384 185.25,222.884C181.5,213.384 167.75,208.384 161.5,208.884C155.25,209.384 156.417,214.635 156.417,214.635C156.417,214.635 152.25,214.135 150.917,210.635C150.917,210.635 151.917,207.469 156.417,205.802C160.917,204.135 155.916,193.635 153.75,189.635C151.584,185.635 153.918,186.968 156.084,185.968C158.25,184.968 153.583,178.134 151.25,173.968C148.917,169.802 152.375,169.384 154.25,167.634C156.125,165.884 150.75,162.384 148.125,160.259C145.5,158.134 144.5,148.634 135.625,148.259C126.75,147.884 130.625,119.509 131.875,115.134C133.125,110.759 127.25,114.634 124.25,102.801C121.25,90.968 115.917,95.301 113.083,94.968C110.249,94.635 102.083,98.135 100.75,94.801C99.417,91.467 105.75,92.134 108.083,92.468C110.416,92.802 109.583,91.468 110.75,89.635C111.917,87.802 119.083,95.635 118.75,89.302C118.417,82.969 114.583,83.302 114.583,83.302L116.416,81.135C116.416,81.135 135.249,64.135 135.416,56.968C135.583,49.801 141.249,52.801 141.249,47.801C141.249,42.801 122.582,39.634 119.582,40.134C116.582,40.634 112.749,35.967 110.582,37.467C108.415,38.967 104.582,41.467 103.249,40.634C101.916,39.801 94.916,41.967 95.082,39.634C95.248,37.301 98.415,34.468 99.915,35.801C101.415,37.134 103.082,36.301 103.082,36.301C103.082,36.301 106.082,33.634 106.415,32.801C106.748,31.968 104.082,31.801 102.748,31.801C101.414,31.801 101.081,30.968 101.581,30.468C102.081,29.968 121.081,17.135 121.581,16.301C122.081,15.467 125.247,11.301 125.414,8.801C125.581,6.301 101.914,5.301 101.581,6.634C101.248,7.967 99.081,10.134 99.081,10.134C99.081,10.134 98.748,7.301 98.081,5.467C97.414,3.633 91.581,-2.7 90.581,1.3C89.581,5.3 88.914,7.8 87.914,7.8C86.914,7.8 80.914,10.133 89.581,13.8C89.581,13.8 88.414,17.467 85.248,14.8C82.082,12.133 81.581,11.467 82.248,15.133L82.415,18.966L78.748,16.466C78.748,16.466 76.373,18.883 79.123,21.133C79.123,21.133 82.123,23.008 80.498,24.133C78.873,25.258 78.248,24.383 76.248,22.258C74.248,20.133 73.623,24.133 74.748,26.508C75.873,28.883 73.623,27.883 72.748,26.508C71.873,25.133 70.498,22.258 69.498,24.133C68.498,26.008 70.748,32.383 72.748,34.883C74.748,37.383 73.623,45.383 73.373,45.758C73.123,46.133 67.123,44.633 67.748,46.633C68.373,48.633 74.373,50.008 72.373,51.758C70.373,53.508 67.873,53.883 65.998,51.883C64.123,49.883 58.873,53.383 61.998,57.008C65.123,60.633 63.123,60.758 60.623,59.633C58.123,58.508 54.498,57.383 54.748,59.883C54.998,62.383 55.123,62.758 55.123,62.758C55.123,62.758 50.873,62.258 51.748,64.258C52.623,66.258 56.248,65.008 56.998,66.633C57.748,68.258 55.623,71.508 53.373,71.633C51.123,71.758 46.498,71.008 49.123,73.883C51.748,76.758 60.498,75.008 62.623,71.883C64.748,68.758 65.498,67.758 66.123,67.258C66.748,66.758 69.248,64.883 69.248,64.883L73,62.759L73.5,64.759L68,68.509L66.25,72.259L62.625,75.759C62.875,78.259 62.125,83.759 62.125,83.759L56.75,87.009C56.75,87.009 60.125,87.384 61.25,86.634C62.375,85.884 57.625,90.634 57.625,90.634L59.875,92.884C59.875,92.884 55.625,95.134 55.125,99.134C54.625,103.134 51.625,106.384 50.875,106.884C50.125,107.384 49.625,109.884 51.875,110.009C54.125,110.134 56.875,108.509 56.875,108.509L58.375,104.134L59.25,101.509L60.625,96.884L63.875,94.759L64.25,90.759L63.25,87.509L74.125,81.009C74.125,81.009 73.75,86.759 74.875,89.384C76,92.009 80.375,92.759 80.375,92.759L73.625,91.884C73.625,91.884 71.25,98.759 71.25,99.384C71.25,100.009 74.75,106.634 74.75,106.634L69.25,112.259L64,119.759L63.5,124.134C63.5,124.134 60.375,124.634 60,124.759C59.625,124.884 65.75,129.634 65.75,129.634L67.375,127.509L73,135.759L75,133.134C75,133.134 74.625,127.884 74.625,127.634C74.625,127.384 80.125,134.509 80.125,134.509L83.875,133.759C83.875,133.759 88.375,129.509 90.125,131.509C91.875,133.509 94,129.384 94,129.384L97.25,130.509L100.875,130.634L100.125,132.384C100.125,132.384 94.125,131.384 93.5,133.634C92.875,135.884 86.875,143.134 86.875,143.134C86.875,143.134 88.75,145.384 89.875,148.884C91,152.384 89.25,154.759 89.25,154.759L90.625,156.009L93.125,154.759L92.875,159.384L92.875,160.009L95.75,160.884L99.625,156.384L100.5,158.884L97.625,162.634L98.75,164.384L98.125,166.134L93.25,165.384L92.25,169.009L95.75,171.634L95.625,173.384L90.625,177.009L91.375,181.259L97.875,185.884L95.625,188.384L91,182.259L89,184.134L90.875,187.009L88.75,189.384L87.125,184.884C87.125,184.884 83.25,183.009 82.125,184.634C81,186.259 79,186.759 77.875,185.384C76.75,184.009 75.375,182.134 75.375,182.134C75.375,182.134 73.25,184.259 73.125,184.634C73,185.009 68.75,184.884 68.75,184.884L70.25,181.634L64.25,175.259L60.5,178.759L64.125,186.009L59.375,191.759C59.375,191.759 54.5,194.884 54.5,194.384C54.5,193.884 56.5,199.009 56.5,199.009L63.375,194.009L67.375,199.134L67.5,208.634L56,218.634L50.5,218.009L46.75,222.634L36.625,221.009L35.75,230.134L38.25,231.509L40.625,235.634L46.125,236.009L49.125,232.634L54.75,232.759L55.625,241.134L59.75,240.759L61.875,238.759L64.75,239.634L66.875,246.384L71.875,250.634L76,250.009L80.625,245.134L83.875,245.884L86.25,247.134L81,251.384L79.125,255.634C79.125,255.634 79.375,256.259 79,256.259C78.625,256.259 72.5,257.634 72.5,257.634L64,252.259C64,252.259 55.5,252.759 55.25,252.384C55,252.009 51.375,258.759 51.375,258.759L48.375,258.759L46.625,255.509L43.375,258.634L44.875,263.634L37.125,269.384C37.125,269.384 35.25,268.634 34.75,268.634C34.25,268.634 32.5,272.509 32.5,272.509C32.5,272.509 28.375,274.634 28.5,274.384C28.625,274.134 27.125,278.009 27.125,278.009L18,278.134L14.25,278.634L14.5,282.134Z" style="fill:rgb(238,240,247);fill-rule:nonzero;"/>
        <path d="M0,126.759L10.5,140.134L16.375,140.009L17.5,133.884L22.875,132.759L23.625,139.384L27.75,142.509L26,146.009L30.75,147.384L32.125,145.009L36.625,148.259L39.625,147.884L42.375,142.759L50.375,142.134L51.125,131.009L45.75,131.884L43.125,130.884L49,125.759L48.625,123.009L45.25,121.384L44.5,117.384L45.25,112.259L38.875,108.384L34.625,108.384L32.875,110.009L28.375,108.509L26,113.009L22.625,112.384C22.625,112.384 20.5,111.009 20.125,111.009C19.75,111.009 15.125,119.759 15.125,119.759L8.875,119.259L11,123.509L0,126.759Z" style="fill:rgb(238,240,247);fill-rule:nonzero;"/>
    </g>
</svg>
