<?xml version="1.0" encoding="UTF-8" standalone="no"?>
<!DOCTYPE svg PUBLIC "-//W3C//DTD SVG 1.1//EN" "http://www.w3.org/Graphics/SVG/1.1/DTD/svg11.dtd">
<svg width="100%" height="100%" viewBox="0 0 512 512" version="1.1" xmlns="http://www.w3.org/2000/svg" xmlns:xlink="http://www.w3.org/1999/xlink" xml:space="preserve" xmlns:serif="http://www.serif.com/" style="fill-rule:evenodd;clip-rule:evenodd;stroke-linejoin:round;stroke-miterlimit:2;">
    <g transform="matrix(1,0,0,1,-1156.21,0)">
        <g id="grad-cap" transform="matrix(1,0,0,1,1156.21,0)">
            <rect x="0" y="0" width="512" height="511.97" style="fill:none;"/>
            <g transform="matrix(0.800003,0,0,0.800003,-0.00400002,51.1853)">
                <path d="M622.34,153.2L343.4,67.5C328.2,62.83 311.8,62.83 296.61,67.5L17.66,153.2C-5.88,160.43 -5.88,191.56 17.66,198.79L66.29,213.73C55.62,226.92 49.06,243.01 48.41,260.63C38.78,266.15 32,276.11 32,288C32,298.78 37.68,307.85 45.86,313.65L20.33,428.53C18.11,438.52 25.71,448 35.94,448L92.05,448C102.29,448 109.89,438.52 107.67,428.53L82.14,313.65C90.32,307.85 96,298.78 96,288C96,276.43 89.53,266.75 80.34,261.13C81.1,246.11 88.78,232.83 101.03,224.41L296.6,284.5C305.66,287.28 323.04,290.75 343.39,284.5L622.34,198.8C645.89,191.56 645.89,160.44 622.34,153.2ZM352.79,315.09C324.26,323.85 299.95,319.01 287.2,315.09L142.18,270.54L128,384C128,419.35 213.96,448 320,448C426.04,448 512,419.35 512,384L497.82,270.53L352.79,315.09Z" style="fill:white;fill-rule:nonzero;"/>
            </g>
        </g>
    </g>
</svg>
