<?xml version="1.0" encoding="UTF-8" standalone="no"?>
<!DOCTYPE svg PUBLIC "-//W3C//DTD SVG 1.1//EN" "http://www.w3.org/Graphics/SVG/1.1/DTD/svg11.dtd">
<svg width="100%" height="100%" viewBox="0 0 512 512" version="1.1" xmlns="http://www.w3.org/2000/svg" xmlns:xlink="http://www.w3.org/1999/xlink" xml:space="preserve" xmlns:serif="http://www.serif.com/" style="fill-rule:evenodd;clip-rule:evenodd;stroke-linejoin:round;stroke-miterlimit:2;">
    <rect id="music" x="0" y="0" width="512" height="511.97" style="fill:none;"/>
    <clipPath id="_clip1">
        <rect id="music1" serif:id="music" x="0" y="0" width="512" height="511.97"/>
    </clipPath>
    <g clip-path="url(#_clip1)">
        <g transform="matrix(1,0,0,1,0,-0.0297532)">
            <path d="M470.38,1.51L150.41,96C137.117,100.176 128.008,112.576 128,126.51L128,387.92C117.522,385.377 106.783,384.061 96,384C43,384 0,412.66 0,448C0,483.34 43,512 96,512C149,512 192,483.34 192,448L192,214.32L448,139.32L448,323.93C437.523,321.378 426.783,320.059 416,320C363,320 320,348.66 320,384C320,419.34 363,448 416,448C469,448 512,419.35 512,384L512,32C511.984,14.457 497.543,0.03 480,0.03C476.737,0.03 473.492,0.529 470.38,1.51Z" style="fill:white;fill-rule:nonzero;"/>
        </g>
    </g>
</svg>
